<?xml version="1.0" encoding="utf-8"?>
<!-- Generator: Adobe Illustrator 25.2.0, SVG Export Plug-In . SVG Version: 6.00 Build 0)  -->
<svg version="1.1" id="Layer_1" xmlns="http://www.w3.org/2000/svg" xmlns:xlink="http://www.w3.org/1999/xlink" x="0px" y="0px"
	 viewBox="0 0 512 512" style="enable-background:new 0 0 512 512;" xml:space="preserve">
<style type="text/css">
	.st0{fill:#FCFCFC;}
</style>
<path class="st0" d="M334.9,252.6c14.1-7.1,19.6-24.3,12.5-38c-4.7-9.8-14.5-15.7-25.5-15.7h-0.4v-7.4c0-5.5-4.3-10.2-10.2-10.2
	H164.1c-5.5,0-10.2,4.3-10.2,10.2v96.4c0,5.5,4.3,10.2,10.2,10.2h52.1v28.6H199c-1.2,0-2,0.8-2,2s0.8,2,2,2h94
	c7.4,0,13.3-5.9,13.3-13.3v-32.9c0-1.2-0.8-2-2-2c-1.2,0-2,0.8-2,2l0,0v32.9c0,5.1-3.9,9-9,9h-41.9c1.2-7.1,7.1-12.1,14.1-12.1h21.2
	c1.2,0,2-0.8,2-2l0,0v-15.7v-0.4v-0.4v-12.1c0-14.9,12.1-27.4,27.4-27.4h10.6c14.9,0,27.4,12.1,27.4,27.4V329c0,1.2,0.8,2,2,2
	c1.2,0,2-0.8,2-2v-45.4C358,268.6,348.6,256.1,334.9,252.6z M346.2,227.1c0,13.3-11,24.3-24.3,24.3c-13.3,0-24.3-11-24.3-24.3
	s11-24.3,24.3-24.3C335.3,202.8,346.2,213.8,346.2,227.1L346.2,227.1L346.2,227.1z M158.6,287.4v-4.3h126.5v10.6H164.5
	C161,293.3,158.6,291,158.6,287.4z M199.3,240c-6.3,0-11.4-5.1-11.4-11.4c0-6.3,5.1-11.4,11.4-11.4c6.3,0,11.4,5.1,11.4,11.4l0,0
	C210.7,234.9,205.6,240,199.3,240z M203.3,244.3c6.3,0,11.8,2.4,15.7,6.3l10.6,10.6c0.4,0.4,0.8,0.8,1.6,0.8c0.4,0,1.2-0.4,1.6-0.8
	l11.8-14.1c0.8-1.2,2.7-1.2,3.9-0.4s1.6,2.7,0.8,3.9l0,0l-15.7,19.2c-1.2,1.2-2.7,1.6-4.3,0.4l0,0L218.5,260c-0.8-0.8-2-0.8-2.7,0
	c-0.4,0.4-0.4,0.8-0.4,1.6v17.2h-33.7v-21.5c0-7.4,5.9-13.3,13.3-13.3h8.2V244.3z M220.5,326.2v-28.6h27.8v23.9v0.4
	c-0.4,1.6-0.8,2.7-1.2,4.3L220.5,326.2z M265.5,309.8c-5.1,0-9.8,2-13.3,5.5v-17.6h32.5v12.1H265.5z M285.1,278.8h-66.6v-12.5
	l7.1,6.7c1.6,1.6,3.5,2,5.5,2c2,0,3.9-1.2,5.1-2.7l15.7-19.2c2.4-2.7,2-7.1-0.8-9.4l9.8-21.9c0.4-1.2,0-2.4-0.8-2.7
	c-1.2-0.4-2.4,0-2.7,0.8l0,0l-9.8,21.9c-2.4-0.4-4.7,0.8-6.3,2.4l-10.2,12.1l-9-9c-3.5-3.5-7.8-5.9-12.5-7.1
	c6.7-5.5,7.4-15.3,2-21.5c-5.5-6.7-15.3-7.4-21.5-2s-7.4,15.3-2,21.5c0.8,0.8,1.6,1.6,2.4,2.4c-7.4,2.4-12.1,9-12.1,16.5V278H159
	v-87.8c0-3.1,2.7-5.9,5.9-5.9h147.3c3.1,0,5.9,2.7,5.9,5.9l0,0v7.8c-15.7,2.7-25.9,17.2-23.5,32.5c1.6,8.6,7.1,16.5,14.9,20.4
	C296.1,255.3,286.7,265.9,285.1,278.8L285.1,278.8z"/>
<path class="st0" d="M289.1,196.6h-54.8c-1.2,0-2,0.8-2,2s0.8,2,2,2h54.8c1.2,0,2-0.8,2-2S289.8,196.6,289.1,196.6L289.1,196.6z"/>
<path class="st0" d="M289.1,208.3h-7.8c-1.2,0-2,0.8-2,2s0.8,2,2,2h7.8c1.2,0,2-0.8,2-2S289.8,208.3,289.1,208.3L289.1,208.3
	L289.1,208.3z"/>
<path class="st0" d="M268.3,210.3c0-1.2-0.8-2-2-2l0,0h-32.5c-1.2,0-2,0.8-2,2s0.8,2,2,2h32.5C267.5,212.2,268.3,211.4,268.3,210.3z
	"/>
<path class="st0" d="M289.1,219.7h-20c-1.2,0-2,0.8-2,2c0,1.2,0.8,2,2,2h20c1.2,0,2-0.8,2-2C291,220.5,289.8,219.7,289.1,219.7
	L289.1,219.7z"/>
<path class="st0" d="M249.1,219.7h-15.3c-1.2,0-2,0.8-2,2c0,1.2,0.8,2,2,2l0,0h15.3c1.2,0,2-0.8,2-2
	C251.4,220.5,250.3,219.7,249.1,219.7L249.1,219.7z"/>
</svg>
