<?xml version="1.0" encoding="utf-8"?>
<!-- Generator: Adobe Illustrator 25.2.0, SVG Export Plug-In . SVG Version: 6.00 Build 0)  -->
<svg version="1.1" id="Layer_1" xmlns="http://www.w3.org/2000/svg" xmlns:xlink="http://www.w3.org/1999/xlink" x="0px" y="0px"
	 viewBox="0 0 512 512" style="enable-background:new 0 0 512 512;" xml:space="preserve">
<style type="text/css">
	.st0{fill:#FCFAFA;}
	.st1{font-family:'SourceHanSerifSC-ExtraLight-GBpc-EUC-H';}
	.st2{font-size:36px;}
</style>
<path class="st0" d="M143.9,251.6c7.5-3.7,10.4-12.9,6.6-20.1c-2.5-5.2-7.7-8.3-13.5-8.3h-0.2v-3.9c0-2.9-2.3-5.4-5.4-5.4h-78
	c-2.9,0-5.4,2.3-5.4,5.4v51c0,2.9,2.3,5.4,5.4,5.4h27.6v15.1h-9.1c-0.6,0-1,0.4-1,1s0.4,1,1,1h49.8c3.9,0,7.1-3.1,7.1-7.1v-17.4
	c0-0.6-0.4-1-1-1s-1,0.4-1,1l0,0v17.4c0,2.7-2.1,4.8-4.8,4.8H99.7c0.6-3.7,3.7-6.4,7.5-6.4h11.2c0.6,0,1-0.4,1-1l0,0v-8.3v-0.2v-0.2
	V268c0-7.9,6.4-14.5,14.5-14.5h5.6c7.9,0,14.5,6.4,14.5,14.5v24.1c0,0.6,0.4,1,1,1s1-0.4,1-1V268
	C156.2,260.1,151.2,253.5,143.9,251.6z M149.9,238.2c0,7.1-5.8,12.9-12.9,12.9c-7.1,0-12.9-5.8-12.9-12.9c0-7.1,5.8-12.9,12.9-12.9
	C144.1,225.3,149.9,231.1,149.9,238.2L149.9,238.2L149.9,238.2z M50.6,270.1v-2.3h67v5.6H53.7C51.8,273.2,50.6,272,50.6,270.1z
	 M72.1,245c-3.3,0-6-2.7-6-6c0-3.3,2.7-6,6-6c3.3,0,6,2.7,6,6l0,0C78.2,242.3,75.5,245,72.1,245z M74.2,247.3c3.3,0,6.2,1.2,8.3,3.3
	l5.6,5.6c0.2,0.2,0.4,0.4,0.8,0.4c0.2,0,0.6-0.2,0.8-0.4l6.2-7.5c0.4-0.6,1.5-0.6,2.1-0.2c0.6,0.4,0.8,1.5,0.4,2.1l0,0l-8.3,10.2
	c-0.6,0.6-1.5,0.8-2.3,0.2l0,0l-5.6-5.4c-0.4-0.4-1-0.4-1.5,0c-0.2,0.2-0.2,0.4-0.2,0.8v9.1H62.8v-11.4c0-3.9,3.1-7.1,7.1-7.1h4.4
	V247.3z M83.3,290.7v-15.1h14.7v12.7v0.2c-0.2,0.8-0.4,1.5-0.6,2.3L83.3,290.7z M107.2,281.9c-2.7,0-5.2,1-7.1,2.9v-9.3h17.2v6.4
	H107.2z M117.6,265.5H82.3v-6.6l3.7,3.5c0.8,0.8,1.9,1,2.9,1c1,0,2.1-0.6,2.7-1.5l8.3-10.2c1.2-1.5,1-3.7-0.4-5l5.2-11.6
	c0.2-0.6,0-1.2-0.4-1.5c-0.6-0.2-1.2,0-1.5,0.4l0,0l-5.2,11.6c-1.2-0.2-2.5,0.4-3.3,1.2l-5.4,6.4l-4.8-4.8c-1.9-1.9-4.1-3.1-6.6-3.7
	c3.5-2.9,3.9-8.1,1-11.4c-2.9-3.5-8.1-3.9-11.4-1s-3.9,8.1-1,11.4c0.4,0.4,0.8,0.8,1.2,1.2c-3.9,1.2-6.4,4.8-6.4,8.7v11.2H50.8
	v-46.5c0-1.7,1.5-3.1,3.1-3.1h78c1.7,0,3.1,1.5,3.1,3.1l0,0v4.1c-8.3,1.5-13.7,9.1-12.4,17.2c0.8,4.6,3.7,8.7,7.9,10.8
	C123.4,253.1,118.4,258.7,117.6,265.5L117.6,265.5z"/>
<path class="st0" d="M119.7,222h-29c-0.6,0-1,0.4-1,1c0,0.6,0.4,1,1,1h29c0.6,0,1-0.4,1-1C120.7,222.4,120.1,222,119.7,222
	L119.7,222z"/>
<path class="st0" d="M119.7,228.2h-4.1c-0.6,0-1,0.4-1,1c0,0.6,0.4,1,1,1h4.1c0.6,0,1-0.4,1-1C120.7,228.6,120.1,228.2,119.7,228.2
	L119.7,228.2L119.7,228.2z"/>
<path class="st0" d="M108.7,229.2c0-0.6-0.4-1-1-1l0,0H90.4c-0.6,0-1,0.4-1,1c0,0.6,0.4,1,1,1h17.2
	C108.2,230.3,108.7,229.9,108.7,229.2z"/>
<path class="st0" d="M119.7,234.2h-10.6c-0.6,0-1,0.4-1,1c0,0.6,0.4,1,1,1h10.6c0.6,0,1-0.4,1-1
	C120.7,234.6,120.1,234.2,119.7,234.2L119.7,234.2z"/>
<path class="st0" d="M98.5,234.2h-8.1c-0.6,0-1,0.4-1,1c0,0.6,0.4,1,1,1l0,0h8.1c0.6,0,1-0.4,1-1C99.7,234.6,99.1,234.2,98.5,234.2
	L98.5,234.2z"/>
<text transform="matrix(1 0 0 1 175.8982 265.5443)" class="st0 st1 st2">Learning in home</text>
</svg>
